HIERARCHY
ROOT joint_Root
{
	OFFSET 0.0 0.0 0.0
	CHANNELS 6 Xposition Yposition Zposition Zrotation Xrotation Yrotation 
	JOINT Hips
	{
		OFFSET 4.5925 91.4895 -427.239
		CHANNELS 6 Xposition Yposition Zposition Zrotation Xrotation Yrotation 
		JOINT Spine
		{
			OFFSET 15.7357 0.0 0.0
			CHANNELS 6 Xposition Yposition Zposition Zrotation Xrotation Yrotation 
			JOINT Chest
			{
				OFFSET 8.98455 -0.406207 0.0
				CHANNELS 6 Xposition Yposition Zposition Zrotation Xrotation Yrotation 
				JOINT Neck
				{
					OFFSET 16.3773 0.0 0.0
					CHANNELS 6 Xposition Yposition Zposition Zrotation Xrotation Yrotation 
					JOINT Head
					{
						OFFSET 6.45672 0.0 0.0
						CHANNELS 6 Xposition Yposition Zposition Zrotation Xrotation Yrotation 
						End Site
						{
							OFFSET 0.0 0.0 0.0
						}
					}
				}
				JOINT Shoulder_L
				{
					OFFSET 12.9942 -0.242716 4.98039
					CHANNELS 6 Xposition Yposition Zposition Zrotation Xrotation Yrotation 
					JOINT UpperArm_L
					{
						OFFSET 5.34809 0.0 0.0
						CHANNELS 6 Xposition Yposition Zposition Zrotation Xrotation Yrotation 
						JOINT LowerArm_L
						{
							OFFSET 24.3286 1.87007e-05 0.0
							CHANNELS 6 Xposition Yposition Zposition Zrotation Xrotation Yrotation 
							JOINT Hand_L
							{
								OFFSET 22.2916 0.0 0.0
								CHANNELS 6 Xposition Yposition Zposition Zrotation Xrotation Yrotation 
								End Site
								{
									OFFSET 0.0 0.0 0.0
								}
							}
						}
					}
				}
				JOINT Shoulder_R
				{
					OFFSET 12.9945 -0.242716 -4.98039
					CHANNELS 6 Xposition Yposition Zposition Zrotation Xrotation Yrotation 
					JOINT UpperArm_R
					{
						OFFSET -5.34813 0.0 0.0
						CHANNELS 6 Xposition Yposition Zposition Zrotation Xrotation Yrotation 
						JOINT LowerArm_R
						{
							OFFSET -24.3289 0.000322201 0.0
							CHANNELS 6 Xposition Yposition Zposition Zrotation Xrotation Yrotation 
							JOINT Hand_R
							{
								OFFSET -22.2915 -0.000108084 0.0
								CHANNELS 6 Xposition Yposition Zposition Zrotation Xrotation Yrotation 
								End Site
								{
									OFFSET 0.0 0.0 0.0
								}
							}
						}
					}
				}
			}
		}
		JOINT UpperLeg_L
		{
			OFFSET -2.19248 -6.46944 0.0
			CHANNELS 6 Xposition Yposition Zposition Zrotation Xrotation Yrotation 
			JOINT LowerLeg_L
			{
				OFFSET 39.0811 0.0 -1.23785e-05
				CHANNELS 6 Xposition Yposition Zposition Zrotation Xrotation Yrotation 
				JOINT Foot_L
				{
					OFFSET 40.9854 0.0 -1.26872e-05
					CHANNELS 6 Xposition Yposition Zposition Zrotation Xrotation Yrotation 
					JOINT Toes_L
					{
						OFFSET 11.7543 0.0 0.0
						CHANNELS 6 Xposition Yposition Zposition Zrotation Xrotation Yrotation 
						End Site
						{
							OFFSET 0.0 0.0 0.0
						}
					}
				}
			}
		}
		JOINT UpperLeg_R
		{
			OFFSET -2.19251 6.46944 0.0
			CHANNELS 6 Xposition Yposition Zposition Zrotation Xrotation Yrotation 
			JOINT LowerLeg_R
			{
				OFFSET -39.0811 -0.00228153 -0.0401928
				CHANNELS 6 Xposition Yposition Zposition Zrotation Xrotation Yrotation 
				JOINT Foot_R
				{
					OFFSET -40.9854 0.0 0.0
					CHANNELS 6 Xposition Yposition Zposition Zrotation Xrotation Yrotation 
					JOINT Toes_R
					{
						OFFSET -11.7543 0.0 0.0
						CHANNELS 6 Xposition Yposition Zposition Zrotation Xrotation Yrotation 
						End Site
						{
							OFFSET 0.0 0.0 0.0
						}
					}
				}
			}
		}
	}
}
MOTION
Frames:	4
Frame Time:	0.0333333
0.000000 0.000000 0.000000 0.000000 0.000000 -0.000000 -0.685484 92.531400 -2.581070 87.501600 3.699140 3.516780 15.735700 0.000005 -0.000001 89.513200 86.139700 -93.091000 8.984550 -0.406207 -0.000000 -0.030145 0.177529 -7.150990 16.377300 -0.000001 -0.000001 4.184430 -2.546670 3.334460 6.456720 -0.000001 -0.000000 -1.452090 -1.429380 1.493350 12.994200 -0.242716 4.980390 -92.299800 5.491710 -67.235400 5.348090 -0.000007 -0.000001 -62.635100 13.569000 -2.778830 24.328600 0.000019 0.000005 9.582990 22.857300 -23.492000 22.291600 -0.000001 0.000005 14.302900 5.134070 4.321550 12.994500 -0.242716 -4.980390 93.508600 -9.710940 -70.025900 -5.348130 -0.000001 -0.000004 -26.041100 -59.292400 -53.617700 -24.328900 0.000322 -0.000009 -4.264130 -1.539520 -70.175600 -22.291500 -0.000108 -0.000004 20.461500 5.543790 -8.416390 -2.192480 -6.469440 -0.000000 -174.069000 -11.463400 -5.232350 39.081100 -0.000007 -0.000012 -0.047227 0.112210 22.825100 40.985400 -0.000006 -0.000013 1.310830 12.862400 -64.571800 11.754300 -0.000000 0.000003 -0.000069 -0.000747 -16.606400 -2.192510 6.469440 -0.000001 178.192000 26.356700 179.478000 -39.081100 -0.002282 -0.040193 0.005394 -0.006165 18.559400 -40.985400 0.000008 0.000006 5.780110 18.193500 -65.167900 -11.754300 -0.000006 -0.000006 -0.004121 -0.052689 -18.716400
0.000000 0.000000 0.000000 0.000000 0.000000 -0.000000 -0.459673 92.546500 -2.750070 87.542800 2.907450 3.503110 15.735700 0.000005 -0.000001 88.688400 86.035500 -92.062500 8.984550 -0.406207 -0.000000 0.171180 0.041931 -6.743760 16.377300 -0.000001 -0.000001 3.528750 -1.892060 2.789560 6.456720 -0.000001 -0.000000 -1.408650 -1.242510 2.386470 12.994200 -0.242716 4.980390 -92.464100 5.920540 -67.354000 5.348090 -0.000007 -0.000001 -62.932700 16.028400 -3.387510 24.328600 0.000019 0.000005 9.474180 23.658500 -22.580600 22.291600 -0.000001 0.000005 13.648800 5.131190 4.389280 12.994500 -0.242716 -4.980390 92.464100 -7.551110 -71.871600 -5.348130 -0.000001 -0.000004 -25.277800 -52.919200 -45.667400 -24.328900 0.000322 -0.000009 -4.733500 -0.572379 -83.112700 -22.291500 -0.000108 -0.000004 20.452800 5.538670 -8.182520 -2.192480 -6.469440 -0.000000 -174.306000 -11.607700 -5.192450 39.081100 -0.000007 -0.000012 -0.047408 0.112955 22.768200 40.985400 -0.000006 -0.000013 1.341280 12.150500 -64.517200 11.754300 -0.000000 0.000003 -0.000068 -0.000741 -16.606200 -2.192510 6.469440 -0.000001 178.010000 26.261400 179.352000 -39.081100 -0.002282 -0.040193 0.005549 -0.006662 18.465100 -40.985400 0.000008 0.000006 5.740120 18.912700 -65.060400 -11.754300 -0.000006 -0.000006 -0.003969 -0.051120 -18.652500
0.000000 0.000000 0.000000 0.000000 0.000000 -0.000000 -0.272657 92.540100 -2.896290 87.615600 2.160060 3.576430 15.735700 0.000005 -0.000001 87.763800 85.867100 -90.920300 8.984550 -0.406207 -0.000000 0.497996 -0.122440 -6.307910 16.377300 -0.000001 -0.000001 2.694260 -1.349540 2.129240 6.456720 -0.000001 -0.000000 -1.316710 -1.072580 3.026390 12.994200 -0.242716 4.980390 -92.611900 6.318460 -67.485700 5.348090 -0.000007 -0.000001 -63.174600 18.538500 -4.038620 24.328600 0.000019 0.000005 9.481060 24.065100 -22.271300 22.291600 -0.000001 0.000005 12.857000 5.133320 4.338900 12.994500 -0.242716 -4.980390 91.363100 -4.704250 -73.827800 -5.348130 -0.000001 -0.000004 -24.568600 -44.693300 -37.821500 -24.328900 0.000322 -0.000009 -4.760140 0.322211 -93.861200 -22.291500 -0.000108 -0.000004 20.369400 5.539400 -8.215240 -2.192480 -6.469440 -0.000000 -174.530000 -11.702600 -5.122100 39.081100 -0.000007 -0.000012 -0.047781 0.113554 22.820400 40.985400 -0.000006 -0.000013 1.343110 11.406600 -64.513400 11.754300 -0.000000 0.000003 -0.000062 -0.000679 -16.603800 -2.192510 6.469440 -0.000001 177.779000 26.189100 179.317000 -39.081100 -0.002282 -0.040193 0.005652 -0.006977 18.447400 -40.985400 0.000008 0.000006 5.823140 19.599500 -65.155700 -11.754300 -0.000006 -0.000006 -0.003975 -0.051179 -18.654900
0.000000 0.000000 0.000000 0.000000 0.000000 -0.000000 -0.126844 92.508600 -2.979640 87.679500 1.472670 3.810210 15.735700 0.000005 -0.000001 87.445400 85.641200 -90.341100 8.984550 -0.406207 -0.000000 0.944115 -0.216195 -5.784900 16.377300 -0.000001 -0.000001 1.874090 -0.955273 1.430560 6.456720 -0.000001 -0.000000 -1.225640 -0.935865 3.300620 12.994200 -0.242716 4.980390 -92.669400 6.509020 -67.643000 5.348090 -0.000007 -0.000001 -63.596700 20.827400 -4.787270 24.328600 0.000019 0.000005 9.465550 24.047800 -22.251400 22.291600 -0.000001 0.000005 12.257600 5.148070 3.989840 12.994500 -0.242716 -4.980390 90.385600 -1.533690 -75.912600 -5.348130 -0.000001 -0.000004 -23.768200 -34.239700 -29.767400 -24.328900 0.000322 -0.000009 -5.372730 1.044210 -100.958000 -22.291500 -0.000108 -0.000004 20.117200 5.547670 -8.596880 -2.192480 -6.469440 -0.000000 -174.678000 -11.642200 -4.939210 39.081100 -0.000007 -0.000012 -0.052563 0.123693 23.023000 40.985400 -0.000006 -0.000013 1.320820 10.657400 -64.616600 11.754300 -0.000000 0.000003 -0.000084 -0.000890 -16.611800 -2.192510 6.469440 -0.000001 177.425000 26.011100 179.358000 -39.081100 -0.002282 -0.040193 -0.009534 0.038045 18.674000 -40.985400 0.000008 0.000006 5.207470 20.247600 -64.955000 -11.754300 -0.000006 -0.000006 -0.003714 -0.048427 -18.542900
